<?xml version="1.0" encoding="UTF-8" standalone="no"?>
<svg
   xmlns:dc="http://purl.org/dc/elements/1.1/"
   xmlns:cc="http://creativecommons.org/ns#"
   xmlns:rdf="http://www.w3.org/1999/02/22-rdf-syntax-ns#"
   xmlns:svg="http://www.w3.org/2000/svg"
   xmlns="http://www.w3.org/2000/svg"
   xmlns:sodipodi="http://sodipodi.sourceforge.net/DTD/sodipodi-0.dtd"
   xmlns:inkscape="http://www.inkscape.org/namespaces/inkscape"
   width="512pt"
   height="512pt"
   viewBox="0 0 512 512"
   version="1.1"
   id="svg2"
   inkscape:version="0.48.5 r10040"
   sodipodi:docname="SchoolIdolTomodachi.svg">
  <metadata
     id="metadata24">
    <rdf:RDF>
      <cc:Work
         rdf:about="">
        <dc:format>image/svg+xml</dc:format>
        <dc:type
           rdf:resource="http://purl.org/dc/dcmitype/StillImage" />
      </cc:Work>
    </rdf:RDF>
  </metadata>
  <defs
     id="defs22" />
  <sodipodi:namedview
     pagecolor="#ffffff"
     bordercolor="#666666"
     borderopacity="1"
     objecttolerance="10"
     gridtolerance="10"
     guidetolerance="10"
     inkscape:pageopacity="0"
     inkscape:pageshadow="2"
     inkscape:window-width="640"
     inkscape:window-height="480"
     id="namedview20"
     showgrid="false"
     inkscape:zoom="0.36875"
     inkscape:cx="320"
     inkscape:cy="320"
     inkscape:window-x="0"
     inkscape:window-y="0"
     inkscape:window-maximized="0"
     inkscape:current-layer="svg2" />
  <path
     fill="#e20f81"
     d=" M 249.37 2.26 C 254.50 -0.20 259.09 5.01 260.64 9.43 C 274.28 45.15 287.88 80.90 301.55 116.61 C 303.11 120.33 303.33 124.75 301.37 128.37 C 300.10 129.87 298.12 130.43 296.39 131.21 C 273.21 140.07 250.02 148.90 226.88 157.85 C 224.77 158.49 222.46 159.94 220.26 158.87 C 216.76 157.53 214.46 154.27 213.17 150.89 C 199.54 115.20 185.94 79.49 172.29 43.80 C 171.15 40.65 170.87 37.04 172.05 33.87 C 172.96 31.49 175.54 30.60 177.69 29.70 C 201.60 20.60 225.48 11.41 249.37 2.26 Z"
     id="path6" />
  <path
     fill="#e20f81"
     d=" M 327.35 100.18 C 329.52 99.08 331.76 100.34 333.67 101.37 C 355.98 114.40 378.38 127.29 400.73 140.26 C 405.71 142.70 405.03 149.43 402.46 153.43 C 384.23 185.22 365.88 216.95 347.65 248.75 C 345.19 253.06 342.85 258.24 337.75 259.90 C 335.52 260.93 333.24 259.58 331.29 258.59 C 309.20 245.70 287.04 232.93 264.92 220.10 C 262.57 218.93 260.85 216.68 260.76 214.00 C 260.57 208.84 263.75 204.49 266.17 200.21 C 284.08 169.11 301.99 138.01 319.85 106.89 C 321.58 103.97 324.03 101.24 327.35 100.18 Z"
     id="path8" />
  <path
     fill="#e20f81"
     d=" M 179.94 132.90 C 182.44 131.68 184.94 129.81 187.88 130.23 C 191.71 130.56 194.19 134.03 195.85 137.15 C 212.36 168.94 228.90 200.71 245.46 232.48 C 247.72 237.09 251.25 241.61 250.62 247.05 C 250.86 249.64 248.93 251.74 246.75 252.81 C 241.02 255.85 235.20 258.70 229.59 261.95 C 219.86 266.54 210.50 271.87 200.92 276.76 C 193.83 280.39 186.80 284.13 179.76 287.86 C 177.27 289.04 174.42 290.70 171.62 289.50 C 167.67 288.02 165.42 284.19 163.54 280.66 C 159.87 273.42 156.18 266.19 152.36 259.03 C 139.10 233.47 125.82 207.91 112.46 182.40 C 110.37 178.86 109.60 174.51 110.74 170.52 C 111.54 168.77 113.31 167.81 114.90 166.89 C 136.60 155.59 158.28 144.26 179.94 132.90 Z"
     id="path10" />
  <path
     fill="#ffe023"
     d=" M 86.12 241.12 C 108.31 246.64 130.12 253.67 152.36 259.03 C 156.18 266.19 159.87 273.42 163.54 280.66 C 160.14 294.14 156.18 307.47 152.96 320.99 C 182.30 321.38 211.65 321.04 241.00 321.16 C 280.11 321.07 319.21 321.33 358.32 321.03 C 355.34 308.76 351.76 296.65 348.72 284.40 C 348.12 281.73 347.06 279.20 346.22 276.61 C 301.48 276.50 256.74 276.62 212.01 276.55 C 208.31 276.55 204.61 276.47 200.92 276.76 C 210.50 271.87 219.86 266.54 229.59 261.95 C 236.04 262.56 242.53 262.33 249.00 262.36 C 281.01 262.37 313.02 262.34 345.03 262.37 C 349.67 262.45 354.01 260.61 358.43 259.46 C 380.09 253.52 401.66 247.27 423.37 241.53 C 425.81 240.61 426.79 243.70 427.61 245.38 C 435.02 263.96 442.46 282.53 449.90 301.10 C 450.30 302.73 451.77 304.76 450.18 306.18 C 448.37 307.29 446.26 307.70 444.26 308.32 C 421.23 314.89 398.17 321.33 375.20 328.10 C 375.19 385.41 375.18 442.72 375.21 500.03 C 375.05 503.04 375.24 506.62 372.84 508.87 C 370.87 511.04 367.72 510.88 365.06 511.05 C 296.71 510.95 228.35 511.03 160.00 511.00 C 154.05 510.94 148.08 511.41 142.16 510.70 C 138.87 510.36 136.34 507.19 136.49 503.94 C 136.33 474.96 136.64 445.97 136.30 417.00 C 136.23 387.34 136.46 357.68 136.18 328.02 C 112.51 321.32 88.87 314.48 65.18 307.82 C 63.69 307.35 62.11 307.00 60.82 306.09 C 59.75 304.85 60.57 303.32 60.98 302.01 C 68.38 283.42 75.94 264.89 83.20 246.25 C 83.89 244.38 85.02 242.76 86.12 241.12 Z"
     id="path12" />
  <path
     fill="#fffefe"
     d=" M 179.76 287.86 C 186.80 284.13 193.83 280.39 200.92 276.76 C 204.61 276.47 208.31 276.55 212.01 276.55 C 256.74 276.62 301.48 276.50 346.22 276.61 C 347.06 279.20 348.12 281.73 348.72 284.40 C 351.76 296.65 355.34 308.76 358.32 321.03 C 319.21 321.33 280.11 321.07 241.00 321.16 C 211.65 321.04 182.30 321.38 152.96 320.99 C 156.18 307.47 160.14 294.14 163.54 280.66 C 165.42 284.19 167.67 288.02 171.62 289.50 C 174.42 290.70 177.27 289.04 179.76 287.86 Z"
     id="path14" />
  <path
     fill="#e20f81"
     d=" M 282.89 335.33 C 283.32 335.38 284.19 335.48 284.63 335.52 C 285.97 346.25 287.67 357.02 291.24 367.26 C 293.42 373.82 298.28 379.07 303.65 383.21 C 310.96 387.63 319.28 389.96 327.36 392.54 C 323.02 394.88 318.00 395.10 313.41 396.73 C 306.72 399.01 299.28 401.04 294.97 407.12 C 285.47 418.13 283.86 433.04 280.36 446.58 C 280.00 446.47 279.27 446.24 278.91 446.13 C 278.45 438.63 276.88 431.25 275.48 423.88 C 273.74 415.03 269.79 406.07 262.47 400.47 C 254.59 395.24 245.54 392.17 236.52 389.55 C 236.47 389.13 236.38 388.29 236.33 387.86 C 244.33 386.27 252.27 384.16 259.81 381.03 C 268.92 376.71 274.85 367.63 277.58 358.17 C 279.63 350.64 282.38 343.18 282.89 335.33 Z"
     id="path16" />
  <path
     fill="#e20f81"
     d=" M 328.16 437.92 C 330.92 432.19 331.78 425.80 334.01 419.87 C 336.17 429.29 336.55 440.03 343.70 447.34 C 348.37 451.30 354.49 452.82 360.04 455.12 C 360.24 455.78 360.48 456.44 360.76 457.08 C 353.77 458.07 346.19 459.80 341.30 465.30 C 335.11 471.45 333.95 480.50 332.15 488.62 C 331.73 488.54 330.88 488.38 330.45 488.30 C 328.89 479.56 328.60 469.72 322.10 462.92 C 317.67 457.54 310.45 456.66 304.50 453.83 C 304.55 453.37 304.65 452.45 304.70 451.99 C 310.27 451.34 316.24 450.44 320.70 446.74 C 323.66 444.27 326.52 441.48 328.16 437.92 Z"
     id="path18" />
</svg>
